<?xml version="1.0" encoding="UTF-8"?>
<svg id="Layer_1" xmlns="http://www.w3.org/2000/svg" version="1.1" xmlns:xlink="http://www.w3.org/1999/xlink" viewBox="0 0 522.6 111.7">
  <!-- Generator: Adobe Illustrator 29.3.1, SVG Export Plug-In . SVG Version: 2.1.0 Build 151)  -->
  <defs>
    <style>
      .st0 {
        fill: #e8cebc;
      }

      .st1 {
        fill: url(#linear-gradient);
      }
    </style>
    <linearGradient id="linear-gradient" x1="504.5" y1="14.1" x2="15.8" y2="126.7" gradientUnits="userSpaceOnUse">
      <stop offset="0" stop-color="#faeee6"/>
      <stop offset="1" stop-color="#faefe7"/>
    </linearGradient>
  </defs>
  <path class="st0" d="M523,42.3v69.4h-8V42.3c0-18.9-15.4-34.3-34.3-34.3H114.4c-11.3,0-21.9,5.6-28.3,14.9l-51.3,74.5c-4.3,6.2-10.1,11.2-16.9,14.3H0v-4c11.3,0,21.9-5.6,28.3-14.9L79.6,18.3C87.5,6.8,100.5,0,114.4,0h366.2c23.3,0,42.3,19,42.3,42.3Z"/>
  <path class="st1" d="M519,42.3v69.4H0c12.6,0,24.4-6.2,31.6-16.6L82.9,20.6c7.2-10.4,19-16.6,31.6-16.6h366.2c21.2,0,38.3,17.2,38.3,38.3Z"/>
</svg>